<svg version="1" xmlns="http://www.w3.org/2000/svg" width="625.333" height="625.333" viewBox="0 0 469.000000 469.000000"><path d="M0 234.5V469h469V0H0v234.5zm261.2-89.2L239 167.5v23.9l22 22.1 22 22-22 22-22 22v24l22.2 22.2 22.3 22.3-23 23c-12.7 12.7-23.8 23.3-24.7 23.6-2.6.8-5.8-1.4-5.8-3.9 0-1.5 6.2-8.3 20.2-22.4l20.3-20.3-20.3-20.3-20.2-20.2v-28l-22-22-22-22 22-22 22-22v-24l-22.2-22.2-22.3-22.3L210 98.5 234.5 74 259 98.5l24.5 24.5-22.3 22.3zM169.8 115c2.9 2.7 3 9.2.2 12-4.5 4.5-11 1-11-6s6.1-10.4 10.8-6zm.2 212c2.8 2.8 2.7 8.7-.2 11.7-4.4 4.7-10.8 1.3-10.8-5.7 0-4.7 2.7-8 6.5-8 1.4 0 3.4.9 4.5 2zm-.6 22.1c5.1 4 2.4 14.1-3.7 14.1-4.3 0-6.7-2.8-6.7-7.8 0-3.4.5-4.7 2.6-6.3 1.5-1.2 3.2-2.1 3.9-2.1.7 0 2.4.9 3.9 2.1z"/><path d="M216.2 105.3L199 122.5l17.8 17.8 17.7 17.7 17.8-17.8 17.7-17.7-17.3-17.3C243.2 95.8 235 88 234.5 88c-.6 0-8.8 7.8-18.3 17.3zM216.7 217.8L199 235.5l17.8 17.8 17.7 17.7 17.8-17.8 17.7-17.7-17.8-17.8-17.7-17.7-17.8 17.8z"/></svg>