<svg xmlns="http://www.w3.org/2000/svg" width="128" height="128" xmlns:xlink="http://www.w3.org/1999/xlink"><defs><linearGradient id="a"><stop offset="0"/><stop offset="1" stop-opacity="0"/></linearGradient><radialGradient id="e" cx="335.6" cy="198.5" r="43.1" xlink:href="#a" fx="335.6" fy="198.5" gradientTransform="matrix(1.02 0 0 .325 -278.453 41.542)" gradientUnits="userSpaceOnUse"/><radialGradient id="f" cx="335.6" cy="198.5" r="43.1" xlink:href="#a" gradientUnits="userSpaceOnUse" gradientTransform="matrix(.696 0 0 .232 -169.49 63.96)" fx="335.6" fy="198.5"/><linearGradient id="g" x1="288" x2="384" y1="106" y2="202" xlink:href="#b" gradientUnits="userSpaceOnUse" gradientTransform="translate(-272 -90)"/><linearGradient id="b"><stop offset="0" stop-color="#f9c440"/><stop offset=".5" stop-color="#fff394"/><stop offset="1" stop-color="#f9c440"/></linearGradient><linearGradient id="h" x1="71.2" x2="71.2" y1="15.4" y2="40.5" xlink:href="#c" gradientUnits="userSpaceOnUse" gradientTransform="translate(-239.48 -53.172) scale(4.205)"/><linearGradient id="c"><stop offset="0" stop-color="#fff"/><stop offset=".4" stop-color="#fff" stop-opacity=".2"/><stop offset=".8" stop-color="#fff" stop-opacity=".2"/><stop offset="1" stop-color="#fff" stop-opacity=".4"/></linearGradient><linearGradient id="i" x1="304" x2="368" y1="98" y2="210" xlink:href="#d" gradientUnits="userSpaceOnUse" gradientTransform="translate(-404.2 -219.925) scale(1.012)"/><linearGradient id="d"><stop offset="0" stop-color="#ccc"/><stop offset=".5" stop-color="#f4f4f4"/><stop offset="1" stop-color="#c1c1c1"/></linearGradient><linearGradient id="j" x1="71.2" x2="71.2" y1="15.4" y2="40.5" xlink:href="#c" gradientUnits="userSpaceOnUse" gradientTransform="rotate(180 154.275 79.21) scale(3.388)"/><linearGradient id="k" x1="71.2" x2="71.2" y1="15.4" y2="40.5" xlink:href="#c" gradientUnits="userSpaceOnUse" gradientTransform="translate(-168.765 -25.87) scale(3.225)"/></defs><path fill="url(#e)" d="M108 106a44 14 0 0 1-88 0 44 14 0 1 1 88 0z" opacity=".2"/><path fill="url(#f)" d="M94 110a30 10 0 0 1-60 0 30 10 0 1 1 60 0z" opacity=".5"/><path fill="url(#g)" stroke="#6e5b0e" stroke-opacity=".5" d="M64 11.5C35 11.5 11.5 35 11.5 64S35 116.5 64 116.5 116.5 93 116.5 64 93 11.5 64 11.5z" color="#000" overflow="visible"/><path fill="none" stroke="url(#h)" d="M115.5 64c0 28.4-23 51.5-51.5 51.5-28.4 0-51.5-23-51.5-51.5 0-28.4 23-51.5 51.5-51.5 28.4 0 51.5 23 51.5 51.5z" color="#000" overflow="visible" opacity=".6" stroke-linecap="round" stroke-linejoin="round"/><circle cx="-64" cy="-64" r="40.5" fill="url(#i)" stroke="#000" stroke-opacity=".3" transform="matrix(0 -1 -1 0 0 0)"/><path fill="none" stroke="url(#j)" d="M22.5 64C22.5 41 41 22.5 64 22.5S105.5 41 105.5 64 87 105.5 64 105.5 22.5 87 22.5 64z" color="#000" overflow="visible" opacity=".4" stroke-linecap="round" stroke-linejoin="round"/><path fill="none" stroke="url(#k)" d="M103.5 64c0 21.8-17.7 39.5-39.5 39.5S24.5 85.8 24.5 64 42.2 24.5 64 24.5s39.5 17.7 39.5 39.5z" color="#000" overflow="visible" opacity=".8" stroke-linecap="round" stroke-linejoin="round"/><path d="M59 38h10v52H59z" opacity=".1"/><path fill="none" stroke="#000" d="M59.5 38.5h9v51h-9z" opacity=".1" stroke-linecap="round" stroke-linejoin="round"/><path fill="#fff" d="M59 90h10v1H59z" opacity=".5"/></svg>