<?xml version="1.0" encoding="UTF-8" standalone="no"?>
<svg
   xmlns:dc="http://purl.org/dc/elements/1.1/"
   xmlns:cc="http://creativecommons.org/ns#"
   xmlns:rdf="http://www.w3.org/1999/02/22-rdf-syntax-ns#"
   xmlns:svg="http://www.w3.org/2000/svg"
   xmlns="http://www.w3.org/2000/svg"
   xmlns:xlink="http://www.w3.org/1999/xlink"
   xmlns:sodipodi="http://sodipodi.sourceforge.net/DTD/sodipodi-0.dtd"
   xmlns:inkscape="http://www.inkscape.org/namespaces/inkscape"
   width="128"
   height="128"
   version="1.1"
   id="svg166"
   sodipodi:docname="notejot.svg"
   inkscape:version="0.92.3 (2405546, 2018-03-11)">
  <metadata
     id="metadata170">
    <rdf:RDF>
      <cc:Work
         rdf:about="">
        <dc:format>image/svg+xml</dc:format>
        <dc:type
           rdf:resource="http://purl.org/dc/dcmitype/StillImage" />
      </cc:Work>
    </rdf:RDF>
  </metadata>
  <sodipodi:namedview
     pagecolor="#ffffff"
     bordercolor="#666666"
     borderopacity="1"
     objecttolerance="10"
     gridtolerance="10"
     guidetolerance="10"
     inkscape:pageopacity="0"
     inkscape:pageshadow="2"
     inkscape:window-width="640"
     inkscape:window-height="480"
     id="namedview168"
     showgrid="false"
     inkscape:zoom="1.84375"
     inkscape:cx="64"
     inkscape:cy="64"
     inkscape:window-x="0"
     inkscape:window-y="30"
     inkscape:window-maximized="0"
     inkscape:current-layer="svg166" />
  <defs
     id="defs104">
    <linearGradient
       id="n">
      <stop
         offset="0"
         stop-color="#fff"
         id="stop2" />
      <stop
         offset=".1"
         stop-color="#fff"
         stop-opacity=".5"
         id="stop4" />
      <stop
         offset="1"
         stop-color="#fff"
         id="stop6" />
      <stop
         offset="1"
         stop-color="#fff"
         id="stop8" />
    </linearGradient>
    <linearGradient
       id="m">
      <stop
         offset="0"
         stop-color="#fff394"
         id="stop16" />
      <stop
         offset="1"
         stop-color="#f9c440"
         id="stop18" />
    </linearGradient>
    <radialGradient
       id="q"
       cx="-13.5"
       cy="59.4"
       r="52.5"
       fx="-13.5"
       fy="59.4"
       gradientTransform="matrix(0 3.80952 -4.38095 0 330.1 34.4)"
       gradientUnits="userSpaceOnUse"
       xlink:href="#m" />
    <linearGradient
       id="r"
       x1="65"
       x2="65"
       y1="8"
       y2="128"
       gradientTransform="matrix(1.00118 0 0 1.00187 0 -.1)"
       gradientUnits="userSpaceOnUse"
       xlink:href="#n" />
    <filter
       id="p"
       width="1"
       height="1.5"
       x="0"
       y="-.3"
       color-interpolation-filters="sRGB">
      <feGaussianBlur
         stdDeviation=".9"
         id="feGaussianBlur101" />
    </filter>
  </defs>
  <path
     d="M11.1 113H120v8H11.1z"
     filter="url(#p)"
     opacity=".1"
     transform="matrix(.97211 0 0 .81895 1.3 21.1)"
     id="path106" />
  <rect
     width="104"
     height="104"
     x="13.5"
     y="14.5"
     fill="url(#q)"
     stroke="#d48e15"
     stroke-opacity=".7"
     rx="2.3"
     ry="2.3"
     id="rect108" />
  <g
     fill="#0e141f"
     font-family="Redacted Script"
     font-weight="400"
     letter-spacing="0"
     opacity=".5"
     word-spacing="0"
     id="g130">
    <path
       style="line-height:125%;-inkscape-font-specification:'Redacted Script'"
       d="M83 48.8h-.3l-.2-.1q-.3-.2-.4-.7v-1.4l.5-2.3.1-.6.2-.6-.5.6-.4.7q-.1.2-.3.1-.2 0-.3-.3l-.1-.7.2-.6.4-.7q.2-.4.5-.6.6-.7 1-.4.3.1.4.7V43l-.4 2q0 .4-.2.7l-.1.8v.2l-.1.2.4-.2.5-.5.7-.9 1-1.4.7-1.3.6-1.2.4-.8.2-.4q.2-.4.4-.3l.2.3.1.3v1l-.3 1.8-.2.8-.1.7v.4l.4-.4.5-.6.4-.7.4-.7q.1-.2.3-.2.2 0 .3.3l.1.7-.1.6-.7 1.3-.8 1q-.3.4-.7.5-.4.2-.7 0l-.3-.6-.1-1 .2-1.3-.4.6-.3.6q-2 3.4-3.2 3.4z"
       id="path110" />
    <g
       font-size="15"
       style="line-height:125%"
       id="g124">
      <path
         d="M28.5 48.1q-.2 0-.3-.2-.2-.4-.1-1V46l.3-1.6.1-1 .1-.7-.6.6-.8.7-.8.7-.9.7q-.1.2-.3 0L25 45v-.7l.3-.5 1.2-1 1.2-1.1.9-.8.3-.3H29.2q.2 0 .3.5v1.7l-.1 1-.2 1v.5q.5-.7 1.3-1.4.1-.2.3 0l.2.4v.8q0 .4-.2.5l-.9 1-.6.7-.6.8-.2.1z"
         style="-inkscape-font-specification:'Redacted Script'"
         id="path112" />
      <path
         d="M33.6 48.1l-.2-.2q-.2-.4-.1-1V46l.3-1.6.1-1 .1-.7-.6.6-.8.7-.8.7-.9.7q-.1.2-.3 0l-.2-.6v-.7l.3-.5 1.2-1 1.2-1.1.9-.8.3-.3H34.4q.2 0 .3.5v1.7l-.2 1-.1 1v.5q.5-.7 1.3-1.4.1-.2.2 0 .2.1.3.4v.8q0 .4-.2.5l-.9 1-.6.7-.7.8-.2.1z"
         style="-inkscape-font-specification:'Redacted Script'"
         id="path114" />
      <path
         d="M38.8 48.1l-.2-.2q-.2-.4-.1-1V46l.3-1.6.1-1 .1-.7-.6.6-.8.7-.8.7-.9.7q-.1.2-.3 0l-.2-.6v-.7l.3-.5 1.2-1 1.2-1.1.9-.8.3-.3h.2q.3 0 .4.5v1.7l-.2 1-.1 1v.5l1.2-1.4q.2-.2.3 0 .2.1.3.4v.8l-.2.5-.9 1-.7.7-.6.8-.2.1z"
         style="-inkscape-font-specification:'Redacted Script'"
         id="path116" />
      <path
         d="M42 50H42l-.2-.2q-.3-.1-.3-.7-.2-.6 0-1.5 0-.9.4-2.3v-.6l.2-.6-.4.6-.4.7q0 .2-.3.2l-.2-.4-.1-.7.1-.6.4-.7.5-.7q.5-.6 1-.3.2 0 .3.6v1.3l-.4 2-.2.8v.7l-.1.3v.1l.3-.1.5-.5.6-1 .8-1.4.7-1.3.6-1.2.4-1 .1-.3q.2-.4.4-.2l.2.2v.3q.2.4 0 1l-.2 1.9-.2.8-.1.8v.3l.4-.3.4-.6.4-.8.3-.7q.2-.3.3-.2.2 0 .3.3v1.4l-.7 1.2-.6 1-.7.6q-.3.2-.6 0t-.3-.6l-.1-1 .2-1.3-.3.6-.4.6q-1.8 3.4-2.8 3.4z"
         style="-inkscape-font-specification:'Redacted Script'"
         id="path118" />
      <path
         d="M49.2 50H49l-.2-.2q-.3-.1-.4-.7v-1.5l.5-2.3v-.6l.2-.6-.4.6-.4.7q0 .2-.3.2l-.2-.4-.1-.7.1-.6.4-.7.4-.7q.6-.6 1-.3.3 0 .4.6v1.3l-.4 2-.2.8-.1.7v.4l.3-.1.5-.5.6-1 .8-1.4.7-1.3.6-1.2.4-1 .1-.3q.2-.4.4-.2l.2.2v.3q.2.4 0 1l-.2 1.9-.2.8-.1.8v.3l.4-.3.4-.6.4-.8.3-.7q.1-.3.3-.2.2 0 .3.3v1.4l-.7 1.2-.6 1-.7.6q-.3.2-.6 0t-.3-.6l-.1-1 .2-1.3-.3.6-.4.6q-1.8 3.4-2.8 3.4z"
         style="-inkscape-font-specification:'Redacted Script'"
         id="path120" />
      <path
         d="M56.9 50h-.2-.1l-.3-.6V49 48l.2-1.4q0-1 .3-2.5l-.7.6-.8.7q-.1.2-.3 0l-.2-.6v-.7q0-.3.3-.5l.8-.7.7-.6.5-.5.2-.2h.2q.2.1.3.5v1.3l-.1.3-.2 1.3-.2 1.5-.1.8v.6l.7-.8.8-1.2 1-1.5.2-.3.2-.4q.2-.2.4 0l.2.3v.7l-.1.6-.2.4-.3.3-1 1.6-.9 1.2Q57.4 50 57 50z"
         style="-inkscape-font-specification:'Redacted Script'"
         id="path122" />
    </g>
    <path
       style="line-height:125%;-inkscape-font-specification:'Redacted Script'"
       d="M79 42.4h.2q.2.1.3.4l.2.4-.1 1.4-.5 1.5-.1.6-.2.5v.1l.2-.2.3-.4.5-.9.6-1 .2-.4.2-.2q0-.3.3-.3.2 0 .3.3V45.5l-.2.3q0 .2-.2.3l-.7 1.3-.6 1-.7.7q-.3.2-.6 0l-.4-.4-.1-.5q-.2-.7 0-1.5l.5-1.6v-.2l.2-.3-.6.4-.9.8-.3-.1q-.2-.2-.2-.5v-.7q0-.4.2-.5l.9-.7.6-.4.3-.3h.2l.2-.2z"
       id="path126" />
    <path
       style="line-height:125%;-inkscape-font-specification:'Redacted Script'"
       d="M71.4 42.4h.1q.3.1.4.7v1.2l-.4 1.5-.1.5-.2.6v.3h1q.5 0 1.3-.4l1.3-1q.8-.4 1.6-1.2h.3l.2.5v.7q0 .4-.2.5-.8.8-1.6 1.3l-1.4 1q-1.8 1-3 .3-.3-.2-.4-.9-.2-.7 0-1.5l.5-1.7v-.2-.2l-1 .6-1.8 1.4h-.3q-.2-.2-.2-.6V45q0-.4.2-.5l1.3-1 1-.6.9-.5.5-.1z"
       id="path128" />
  </g>
  <g
     fill="#0e141f"
     font-family="Redacted Script"
     font-weight="400"
     letter-spacing="0"
     opacity=".5"
     word-spacing="0"
     id="g144">
    <path
       style="line-height:125%;-inkscape-font-specification:'Redacted Script'"
       d="M30.5 32.8h-.2q-.3-.2-.4-.8v-1.2l.4-1.5.2-.6.1-.6.1-.3q-.4-.2-1 0-.6 0-1.3.4-.6.3-1.3 1l-1.5 1.2q-.2.2-.3 0-.2 0-.3-.4v-.8q.1-.4.3-.5l1.5-1.4 1.4-1q1.8-1 3-.3.2.2.4 1v1.5l-.5 1.8v.1l-.1.3 1-.7 1.7-1.4h.3l.3.6v.8q0 .3-.3.5l-1.2.9-1 .7-.9.6h-.4z"
       id="path132" />
    <path
       style="line-height:125%;-inkscape-font-specification:'Redacted Script'"
       d="M37.2 33.1q-.2 0-.3-.2-.2-.4-.1-1l.1-.9.3-1.6v-1l.2-.7-.7.6-.8.7-1 .7-.8.8h-.3l-.3-.6v-.7l.3-.6 1.3-1 1.3-1.1 1-.8.3-.4H38q.2.1.3.5v1.8l-.1 1-.2 1.1v.4q.5-.7 1.4-1.4.1-.2.3 0 .2.1.2.5v.7q0 .4-.2.5l-.9 1-.7.8-.7.7q0 .2-.2.2z"
       id="path134" />
    <path
       style="line-height:125%;-inkscape-font-specification:'Redacted Script'"
       d="M40.7 35l-.2-.1h-.2q-.3-.3-.4-.8v-1.5l.5-2.4v-.6l.2-.6-.4.6-.4.7q-.1.3-.3.2-.2 0-.3-.4l-.1-.7.2-.6.4-.7.4-.7q.6-.7 1.1-.3.2 0 .4.6V29l-.5 2-.1.9-.2.7v.4l.3-.2q.3-.1.5-.5l.7-.9 1-1.4.7-1.4.6-1.2.4-1 .1-.3q.2-.4.5-.3l.2.2v.4q.2.4 0 1l-.2 2-.2.7q0 .5-.2.8v.4q.2 0 .4-.4l.5-.6.4-.8.4-.7q.1-.3.3-.2.2 0 .3.3l.1.7-.1.7-.7 1.3-.7 1-.7.6q-.4.2-.7 0-.3-.2-.4-.7v-1l.2-1.3-.4.6-.3.6q-2 3.5-3.1 3.5z"
       id="path136" />
    <path
       style="line-height:125%;-inkscape-font-specification:'Redacted Script'"
       d="M48.3 35l-.2-.1H48l-.3-.8q-.2-.6 0-1.5l.4-2.4.1-.6.2-.6-.4.6-.4.7q-.2.3-.4.2-.2 0-.3-.4v-.7l.1-.6.4-.7.5-.7q.6-.7 1-.3.3 0 .4.6V29l-.4 2q0 .5-.2.9l-.1.7v.4l.3-.2.5-.5.7-.9.9-1.4.7-1.4.6-1.2.4-1 .2-.3q.2-.4.4-.3l.2.2.1.4v1l-.3 2-.2.7-.1.8v.4q.2 0 .4-.4l.4-.6.5-.8.3-.7q.2-.3.4-.2l.3.3v1.4l-.8 1.3-.7 1q-.3.4-.7.6-.3.2-.7 0-.2-.2-.3-.7v-1l.1-1.3-.3.6-.4.6q-2 3.5-3 3.5z"
       id="path138" />
    <path
       style="line-height:125%;-inkscape-font-specification:'Redacted Script'"
       d="M56.6 35h-.1-.2l-.2-.6-.1-.5v-.8l.2-1.5.3-2.4-.7.6-.8.7h-.3l-.3-.6v-.7l.3-.6.9-.7.7-.6.6-.5.2-.2h.3l.2.5v1.6l-.3 1.3-.2 1.6-.1.8v.5q.2 0 .7-.7l1-1.2 1-1.6.2-.3.3-.4q.1-.2.3 0 .2 0 .3.3v.8l-.1.5-.3.4-.2.4-1 1.5-1 1.3q-1 1.1-1.6 1.1zM69.4 32.1h-.1q-.3-.1-.4-.4v-.4q-.2-.7 0-1.5l.4-1.6.2-.5.1-.6V27l-.1.2q-.2.1-.3.4-.3.3-.6 1l-.5 1-.2.4-.2.3q0 .2-.3.2l-.3-.3v-.7-.7l.2-.3.2-.3.7-1.3.6-1q.3-.5.7-.7.3-.3.6 0 .2.1.3.4l.2.5v1.5l-.6 1.7v.2l-.1.3.5-.5.9-.7h.3l.3.6v.8l-.3.5-.8.6-.7.5-.2.3h-.2l-.2.2h-.1z"
       id="path140" />
    <path
       style="line-height:125%;-inkscape-font-specification:'Redacted Script'"
       d="M76.5 32.8h-.2q-.3-.2-.4-.8v-1.2l.4-1.5.2-.6.1-.6.1-.3q-.4-.2-1 0-.6 0-1.3.4-.6.3-1.3 1l-1.5 1.2q-.2.2-.3 0-.2 0-.3-.4v-.8q.1-.4.3-.5l1.5-1.4 1.4-1q1.8-1 2.9-.3.3.2.5 1v1.5l-.5 1.8-.1.1v.3l1-.7 1.7-1.4h.3l.3.6v.8l-.3.5-1.2.9-1 .7-.9.6h-.4zM88 34.2H88l-.2-.2q-.3-.1-.4-.6-.1-.7 0-1.6l.5-2.4V29l.2-.6-.4.5-.4.7q-.2.3-.3.2-.2 0-.3-.3l-.1-.7.1-.7.5-.7.4-.7q.6-.6 1.1-.3.2 0 .3.6.2.6 0 1.3 0 .8-.4 2.1l-.1.8-.2.7v.4l.3-.2.5-.4.7-1 1-1.4.7-1.4.6-1.2.4-1 .1-.3q.2-.4.5-.3l.1.3.2.3v1l-.3 2-.2.8q0 .4-.2.7v.4q.2 0 .4-.4.3-.2.5-.6l.4-.7.4-.7q.1-.3.3-.3.2 0 .3.3l.1.7-.1.7-.7 1.3-.7 1-.7.6q-.4.2-.7 0-.3-.2-.4-.6v-1l.1-1.4-.3.6-.3.7q-2 3.5-3.1 3.5z"
       id="path142" />
  </g>
  <rect
     width="102"
     height="102"
     x="14.5"
     y="15.5"
     fill="none"
     stroke="url(#r)"
     stroke-opacity=".6"
     opacity=".5"
     rx="1.5"
     ry="1.5"
     id="rect146" />
  <rect
     width="103"
     height="1"
     x="14"
     y="116"
     fill="#f9c440"
     rx="0"
     ry="0"
     id="rect148" />
  <rect
     width="103"
     height="1"
     x="14"
     y="112"
     fill="#f9c440"
     rx="0"
     ry="0"
     id="rect150" />
  <rect
     width="103"
     height="1"
     x="14"
     y="108"
     fill="#f9c440"
     rx="0"
     ry="0"
     id="rect152" />
  <rect
     width="103"
     height="1"
     x="14"
     y="115"
     fill="#d48e15"
     opacity=".8"
     rx="0"
     ry="0"
     id="rect154" />
  <rect
     width="103"
     height="1"
     x="14"
     y="111"
     fill="#d48e15"
     opacity=".8"
     rx="0"
     ry="0"
     id="rect156" />
  <rect
     width="103"
     height="1"
     x="14"
     y="107"
     fill="#d48e15"
     opacity=".8"
     rx="0"
     ry="0"
     id="rect158" />
  <rect
     width="102"
     height="1"
     x="15"
     y="106"
     fill="#fff"
     opacity=".3"
     rx="0"
     ry="0"
     id="rect160" />
  <rect
     width="102"
     height="1"
     x="15"
     y="110"
     fill="#fff"
     opacity=".3"
     rx="0"
     ry="0"
     id="rect162" />
  <rect
     width="102"
     height="1"
     x="15"
     y="114"
     fill="#fff"
     opacity=".3"
     rx="0"
     ry="0"
     id="rect164" />
</svg>
