<svg xmlns="http://www.w3.org/2000/svg" width="128" height="128" xmlns:xlink="http://www.w3.org/1999/xlink"><defs><linearGradient id="b"><stop offset="0" stop-color="#fff"/><stop offset=".063" stop-color="#fff" stop-opacity=".502"/><stop offset=".951" stop-color="#fff"/><stop offset="1" stop-color="#fff"/></linearGradient><linearGradient id="a"><stop offset="0" stop-color="#fff394"/><stop offset="1" stop-color="#f9c440"/></linearGradient><radialGradient id="d" cx="-13.485" cy="59.379" r="52.5" xlink:href="#a" fx="-13.485" fy="59.379" gradientTransform="matrix(0 3.8 -4.38 0 330.14 34.37)" gradientUnits="userSpaceOnUse"/><linearGradient id="e" x1="65" x2="65" y1="8" y2="128" xlink:href="#b" gradientUnits="userSpaceOnUse" gradientTransform="translate(-.03 -.13)"/><filter id="c" width="1.039" height="1.535" x="-.02" y="-.268" color-interpolation-filters="sRGB"><feGaussianBlur stdDeviation=".892"/></filter></defs><path d="M11.065 113h108.87v8H11.065z" transform="matrix(.97 0 0 .82 1.32 21.15)" opacity=".122" filter="url(#c)"/><rect width="103.976" height="103.976" x="13.512" y="14.512" fill="url(#d)" stroke="#d48e15" stroke-opacity=".686" stroke-width="1.024" ry="2.336" rx="2.336"/><g fill="#0e141f" opacity=".5" font-family="Redacted Script" letter-spacing="0" word-spacing="0"><path d="M82.917 48.804q-.118 0-.22-.03-.09-.032-.193-.094-.265-.154-.368-.648-.132-.617 0-1.48.147-.896.47-2.284.06-.247.12-.555.058-.31.132-.587-.192.155-.413.525-.206.34-.427.71-.147.25-.323.19-.192-.06-.31-.34-.117-.31-.088-.68.03-.37.162-.64.2-.31.42-.68.22-.37.47-.61.6-.65 1.1-.34.23.1.35.62.11.53-.02 1.24-.12.71-.42 2.01-.08.37-.17.74-.07.37-.15.71l-.05.22-.03.19q.14-.03.37-.18.23-.15.53-.46.3-.34.7-.89.4-.55.91-1.39.39-.67.75-1.32.35-.65.62-1.17.26-.52.42-.86l.16-.34q.17-.43.42-.28.12.07.19.22.07.16.12.31.1.43.01 1.02-.09.59-.32 1.82-.09.4-.17.8-.08.4-.15.74-.02.16-.05.34.2-.06.44-.34.23-.28.47-.61.23-.34.44-.71.2-.4.36-.68.15-.28.32-.25.18.03.31.31.12.31.1.68 0 .37-.15.65-.34.65-.69 1.23-.35.56-.72.99-.36.41-.72.59-.37.16-.72-.03-.24-.18-.34-.62-.09-.43-.06-.92.04-.52.18-1.33-.16.31-.34.59l-.35.62q-2.03 3.37-3.17 3.37z" style="line-height:125%;-inkscape-font-specification:'Redacted Script'"/><g style="line-height:125%" font-size="15"><path d="M28.455 48.135q-.16 0-.267-.222-.214-.41-.12-1.043 0-.032.093-.76l.25-1.643.12-.917.1-.727q-.28.253-.64.57-.36.316-.77.695-.4.348-.83.727-.42.38-.82.727-.15.127-.29-.03-.16-.19-.23-.57-.05-.348.03-.696.07-.38.23-.537.6-.51 1.25-1.08.65-.57 1.19-1.05l.88-.79.36-.32q.07-.03.12-.03.07-.03.13.03.19.06.27.5.07.25.05.66 0 .38-.06 1.11-.04.41-.11.91-.05.47-.14 1.1-.01.12-.02.22t-.03.22q.54-.7 1.31-1.45.15-.16.3 0 .15.12.22.47.08.35.02.73t-.21.54q-.45.47-.84.92-.39.44-.67.79-.34.41-.6.76-.08.15-.2.15z" style="-inkscape-font-specification:'Redacted Script'"/><path d="M33.65 48.135q-.16 0-.268-.222-.214-.41-.12-1.043 0-.032.093-.76l.24-1.643q.067-.537.12-.917l.094-.727q-.28.253-.65.57-.36.316-.78.695-.4.348-.83.727-.43.38-.83.727-.15.127-.3-.03-.16-.19-.23-.57-.06-.348.02-.696.07-.38.23-.537.6-.51 1.24-1.08.65-.57 1.19-1.05l.88-.79.36-.32q.06-.03.12-.03.06-.03.13.03.18.06.26.5.06.25.05.66 0 .38-.07 1.11-.04.41-.11.91-.05.47-.15 1.1-.02.12-.03.22t-.03.22q.53-.7 1.31-1.45.14-.16.29 0 .14.12.21.47.08.35.01.73t-.21.54q-.45.47-.84.92-.39.44-.67.79-.33.41-.6.76-.08.15-.2.15z" style="-inkscape-font-specification:'Redacted Script'"/><path d="M38.842 48.135q-.16 0-.267-.222-.214-.41-.12-1.043 0-.032.093-.76l.24-1.643q.068-.537.12-.917.055-.41.095-.727-.28.253-.642.57-.36.316-.77.695-.4.348-.83.727-.43.38-.83.727-.14.127-.29-.03-.16-.19-.22-.57-.05-.348.03-.696.07-.38.23-.537.6-.51 1.25-1.08.66-.57 1.19-1.05l.88-.79.36-.32q.07-.03.12-.03.07-.03.14.03.19.06.27.5.07.25.06.66 0 .38-.06 1.11-.04.41-.11.91-.05.47-.14 1.1-.01.12-.02.22t-.02.22q.54-.7 1.31-1.45.15-.16.3 0 .15.12.22.47.08.35.02.73-.07.38-.21.54-.45.47-.84.92-.38.44-.66.79-.332.41-.6.76-.08.15-.2.15z" style="-inkscape-font-specification:'Redacted Script'"/><path d="M42.058 49.937q-.107 0-.2-.032-.08-.03-.174-.095-.24-.158-.334-.664-.12-.632 0-1.517.134-.92.428-2.34.053-.26.107-.57.053-.32.12-.6-.174.15-.374.53l-.38.72q-.13.25-.29.19-.17-.07-.28-.35-.1-.32-.08-.7.03-.38.15-.67.19-.32.39-.7.2-.38.43-.63.55-.67 1.01-.35.21.09.32.63.11.54-.01 1.26-.1.72-.37 2.05-.06.38-.14.76-.06.37-.13.72l-.04.22-.02.19q.13-.04.33-.19.22-.16.48-.48.28-.35.64-.92.36-.57.83-1.43.36-.7.68-1.36.32-.67.56-1.2.25-.54.39-.89l.15-.35q.16-.45.39-.29.11.06.18.22.07.16.11.31.09.44.01 1.05-.08.6-.3 1.86l-.16.82-.13.76-.04.35q.18-.07.4-.35.21-.28.43-.63.21-.35.4-.73.18-.41.33-.69.13-.29.29-.25.16.03.28.31.11.32.1.7 0 .37-.13.66-.31.66-.63 1.26-.32.57-.65 1.01-.32.41-.66.6-.33.16-.65-.03-.22-.19-.31-.63-.08-.44-.05-.95.04-.53.16-1.36-.15.31-.31.6l-.32.63q-1.84 3.45-2.87 3.45z" style="-inkscape-font-specification:'Redacted Script'"/><path d="M49.157 49.937q-.107 0-.2-.032-.08-.03-.174-.095-.24-.158-.334-.664-.13-.632 0-1.517.13-.92.42-2.34.05-.26.1-.57.05-.32.12-.6-.18.15-.38.53l-.39.72q-.14.25-.3.19-.18-.07-.28-.35-.11-.32-.08-.7.02-.38.14-.67.19-.32.39-.7.2-.38.42-.63.54-.67 1-.35.21.09.32.63.1.54-.02 1.26-.11.72-.38 2.05-.07.38-.15.76l-.14.72q-.03.12-.04.22l-.03.19q.13-.04.33-.19.21-.16.48-.48.28-.35.64-.92.36-.57.83-1.43.36-.7.68-1.36.32-.67.56-1.2.24-.54.38-.89l.14-.35q.16-.45.39-.29.1.06.17.22t.11.31q.09.44.01 1.05-.08.6-.29 1.86l-.16.82q-.07.41-.14.76l-.04.35q.18-.07.4-.35.21-.28.43-.63t.4-.73q.18-.41.33-.69.13-.29.29-.25.16.03.28.31.1.32.09.7 0 .37-.14.66-.31.66-.63 1.26-.32.57-.66 1.01-.32.41-.656.6-.33.16-.66-.03-.21-.19-.3-.63-.08-.44-.05-.95.04-.53.16-1.36-.15.31-.31.6l-.32.63q-1.84 3.45-2.87 3.45z" style="-inkscape-font-specification:'Redacted Script'"/><path d="M56.87 50q-.067 0-.133-.032-.067 0-.147-.03-.16-.128-.268-.54-.04-.188-.053-.44-.02-.286.02-.823.05-.538.16-1.455.12-.948.32-2.434-.31.253-.68.6-.38.348-.78.696-.15.127-.3-.03-.16-.19-.23-.57-.06-.348.02-.696.06-.38.22-.537.43-.38.83-.73.4-.35.71-.6.3-.29.49-.45l.18-.19q.13-.13.25-.03.18.09.26.47.06.28.04.5l-.04.47q-.03.13-.04.28l-.04.31q-.1.53-.2 1.33l-.2 1.55q-.07.44-.11.76-.04.31-.07.57.25-.13.73-.73.41-.54.88-1.24.47-.7.98-1.52l.21-.32q.1-.16.21-.35.15-.22.31-.13.16.06.27.41.09.35.05.73-.03.35-.17.57-.11.19-.23.38l-.23.35q-.51.79-.99 1.52-.48.72-.91 1.26-.86 1.1-1.36 1.1z" style="-inkscape-font-specification:'Redacted Script'"/></g><path d="M79.09 42.36q.073 0 .117.032.235.123.338.37.09.278.118.432.118.68-.06 1.39-.19.74-.47 1.542-.088.246-.162.524-.07.278-.14.525l-.04.123q.09-.062.22-.185.12-.123.28-.37.27-.34.56-.895.3-.525.61-1.11l.16-.31q.08-.123.15-.277.13-.24.31-.24.19.03.31.34.14.28.12.65-.01.41-.15.65-.07.16-.16.28l-.15.31q-.35.68-.69 1.27-.35.62-.67 1.05-.34.43-.66.62-.33.22-.64.03-.25-.15-.36-.43-.1-.28-.13-.49-.13-.71.06-1.45t.49-1.63q.03-.06.08-.21.03-.12.07-.25-.22.19-.56.43-.35.28-.87.71-.19.13-.35-.06-.16-.15-.22-.52-.07-.34.02-.71.08-.34.24-.49l.85-.62q.39-.28.65-.49l.27-.21q.1-.06.19-.12.12-.06.19-.12.06-.03.14-.03z" style="line-height:125%;-inkscape-font-specification:'Redacted Script'"/><path d="M71.356 42.36q.103 0 .19.062.28.123.398.71.09.524-.044 1.172-.132.648-.383 1.45-.088.278-.16.556-.09.308-.15.555-.043.124-.072.31.44.153 1.03.06.575-.06 1.296-.462.65-.34 1.37-.895.73-.525 1.53-1.265.17-.155.33-.03.16.153.24.493.09.34.02.71-.07.37-.23.524-.84.77-1.57 1.327-.75.586-1.44.925-1.81.957-2.96.31-.34-.186-.47-.865-.13-.71.06-1.543.19-.802.46-1.697.03-.062.06-.154.02-.093.05-.216-.34.154-.99.617-.66.463-1.84 1.357-.16.13-.32-.06-.18-.15-.23-.52-.07-.34 0-.71.08-.34.27-.49l1.2-.89q.56-.4 1-.68.61-.37.92-.52.3-.12.46-.12z" style="line-height:125%;-inkscape-font-specification:'Redacted Script'"/></g><g fill="#0e141f" opacity=".5" font-family="Redacted Script" letter-spacing="0" word-spacing="0"><path d="M30.49 32.784q-.1 0-.186-.064-.274-.13-.39-.74-.085-.545.044-1.22.13-.674.375-1.51.086-.288.158-.578.09-.32.15-.578.05-.128.07-.32-.43-.162-1.01-.065-.56.06-1.26.48-.63.35-1.34.93-.7.54-1.5 1.31-.16.16-.31.03-.16-.16-.23-.52-.09-.36-.01-.74.07-.39.23-.55.82-.81 1.54-1.38.74-.61 1.42-.97 1.77-1 2.9-.32.34.19.46.9.13.74-.05 1.6-.19.83-.45 1.76-.03.06-.06.16-.01.09-.04.22.33-.16.97-.64.65-.48 1.8-1.42.16-.13.32.06.17.16.23.54.07.35 0 .74-.07.35-.26.51-.66.51-1.21.93-.54.41-.98.7-.59.38-.89.54-.29.13-.45.13z" style="line-height:125%;-inkscape-font-specification:'Redacted Script'"/><path d="M37.215 33.105q-.173 0-.288-.225-.23-.417-.13-1.06 0-.032.1-.77l.26-1.67q.072-.547.13-.932l.1-.74q-.302.258-.69.58-.39.32-.836.706-.43.353-.89.738-.46.386-.89.74-.16.128-.31-.033-.17-.2-.24-.58-.05-.36.03-.71.07-.39.25-.55.65-.52 1.34-1.09.71-.58 1.28-1.06.58-.48.95-.81l.39-.32q.07-.04.13-.04.07-.04.15.03.21.06.29.51.07.25.06.67 0 .38-.07 1.12-.04.42-.12.93-.05.48-.16 1.12-.01.13-.02.22l-.03.22q.58-.71 1.41-1.48.16-.16.32 0 .16.13.23.48.09.35.02.74-.07.38-.23.54-.49.48-.9.93-.42.45-.72.8-.36.42-.65.77-.08.16-.21.16z" style="line-height:125%;-inkscape-font-specification:'Redacted Script'"/><path d="M40.68 34.936q-.114 0-.215-.032-.087-.032-.187-.097-.26-.16-.36-.674-.13-.643 0-1.542.144-.93.46-2.37.058-.25.116-.58.057-.32.13-.61-.188.16-.404.55l-.418.74q-.144.26-.316.19-.188-.06-.303-.35-.115-.32-.086-.7.028-.38.158-.67.202-.32.418-.71.216-.38.46-.64.59-.67 1.08-.35.23.1.346.64.11.55-.02 1.29-.12.74-.41 2.09-.07.39-.16.77-.07.39-.15.74-.03.13-.05.23l-.03.19q.14-.03.36-.19.23-.16.52-.48.3-.35.69-.93.39-.58.89-1.44.39-.7.73-1.38.34-.67.6-1.22.26-.55.42-.9l.16-.35q.17-.45.41-.29.12.07.19.23t.12.32q.1.45.01 1.06-.09.61-.32 1.89l-.17.84q-.07.42-.15.77-.02.16-.05.35.2-.06.43-.35.23-.29.46-.64.23-.35.43-.74.2-.42.36-.71.14-.29.32-.25.17.03.3.32.12.32.1.71 0 .39-.14.68-.33.68-.68 1.29-.35.58-.71 1.03-.34.42-.7.61-.36.16-.71-.03-.23-.19-.33-.64-.09-.45-.06-.97.05-.54.17-1.38-.16.32-.33.61-.16.29-.35.64-1.99 3.5-3.1 3.5z" style="line-height:125%;-inkscape-font-specification:'Redacted Script'"/><path d="M48.332 34.936q-.115 0-.216-.032-.086-.032-.187-.097-.26-.16-.36-.674-.13-.643 0-1.542.14-.93.46-2.37.05-.25.11-.58.05-.32.13-.61-.19.16-.41.55l-.42.74q-.15.26-.32.19-.19-.06-.31-.35-.12-.32-.09-.7.03-.38.16-.67.2-.32.42-.71.21-.38.46-.64.59-.67 1.08-.35.23.1.34.64.11.55-.02 1.29-.12.74-.41 2.09-.07.39-.16.77-.07.39-.15.74-.03.13-.04.23l-.03.19q.14-.03.36-.19.23-.16.52-.48.3-.35.69-.93.39-.58.89-1.44.39-.7.74-1.38.34-.67.6-1.22.26-.55.42-.9l.16-.35q.17-.45.41-.29.11.07.19.23t.11.32q.1.45.01 1.06-.08.61-.32 1.89l-.18.84q-.08.42-.15.77l-.04.35q.2-.06.43-.35.23-.29.46-.64.23-.35.43-.74.2-.42.36-.71.14-.29.32-.25.17.03.3.32.11.32.1.71 0 .39-.15.68-.33.68-.68 1.29-.348.58-.708 1.03-.347.42-.707.61-.36.16-.71-.03-.23-.19-.33-.64-.08-.45-.05-.97.04-.54.17-1.38-.16.32-.33.61-.16.29-.35.64-1.99 3.5-3.1 3.5z" style="line-height:125%;-inkscape-font-specification:'Redacted Script'"/><path d="M56.646 35q-.072 0-.144-.032-.072 0-.16-.032-.172-.13-.287-.546-.043-.193-.057-.45-.015-.29.028-.835.058-.546.173-1.478.13-.963.34-2.473-.33.257-.74.61-.41.354-.84.707-.16.13-.32-.03-.18-.19-.25-.58-.06-.35.03-.7.07-.38.24-.54l.89-.74q.43-.35.76-.61.33-.29.53-.45l.2-.19q.14-.13.27-.03.19.1.27.48.07.29.04.52-.02.23-.05.49-.03.13-.04.29l-.05.32q-.11.55-.22 1.35-.1.77-.22 1.58-.08.45-.12.77-.04.32-.07.58.27-.13.79-.74.45-.54.95-1.25t1.05-1.54l.23-.32q.11-.16.23-.35.16-.23.33-.13.17.06.28.42.1.35.06.74-.03.35-.19.58-.12.2-.25.39-.12.16-.25.36-.54.8-1.06 1.54t-.98 1.29q-.9 1.06-1.44 1.06zm12.73-2.86q-.07 0-.115-.03-.23-.13-.33-.386-.08-.29-.11-.45-.11-.707.06-1.445.19-.78.46-1.61.09-.26.16-.55.07-.29.15-.55.02-.03.05-.13-.08.06-.21.19-.11.13-.27.38-.26.35-.55.93-.29.54-.59 1.15-.07.16-.16.32-.07.13-.14.29-.13.25-.3.25-.18-.03-.3-.36-.13-.29-.11-.67.01-.42.14-.68.08-.16.16-.29l.15-.32q.35-.71.68-1.32.35-.65.67-1.09.33-.45.65-.64.33-.23.64-.03.24.16.34.45.1.29.13.51.13.74-.06 1.51t-.47 1.7q-.03.06-.07.22-.03.13-.07.26.22-.2.55-.45.34-.29.85-.74.18-.13.34.06.16.16.22.55.07.35-.01.74-.07.35-.23.51l-.83.64q-.37.29-.63.51-.15.13-.26.22-.1.06-.19.13-.12.06-.19.13-.06.03-.13.03z" style="line-height:125%;-inkscape-font-specification:'Redacted Script'"/><path d="M76.482 32.784q-.1 0-.187-.064-.273-.13-.39-.74-.085-.545.045-1.22.13-.674.374-1.51.086-.288.158-.578.087-.32.144-.578.044-.128.072-.32-.432-.162-1.008-.065-.56.06-1.267.48-.634.35-1.34.93-.705.54-1.497 1.31-.16.16-.317.03-.16-.16-.24-.52-.09-.36-.02-.74.07-.39.23-.55.82-.81 1.54-1.38.73-.61 1.41-.97 1.77-1 2.89-.32.33.19.46.9.13.74-.06 1.6-.19.83-.45 1.76-.03.06-.06.16l-.04.22q.33-.16.96-.64.65-.48 1.8-1.42.16-.13.32.06.17.16.23.54.07.35 0 .74-.08.35-.26.51-.66.51-1.21.93-.55.41-.98.7-.59.38-.9.54-.29.13-.45.13zm11.588 1.38q-.114 0-.215-.032-.086-.032-.187-.096-.26-.16-.36-.675-.13-.64 0-1.54.144-.93.46-2.37.058-.25.116-.58.057-.32.13-.61-.188.16-.404.55l-.418.74q-.144.26-.316.2-.188-.06-.303-.35-.115-.32-.086-.7.03-.39.158-.67.202-.32.418-.7.216-.38.46-.64.59-.67 1.08-.35.23.1.346.64.11.55-.02 1.29-.12.74-.41 2.09-.07.39-.16.77-.07.39-.15.74l-.05.22-.03.2q.14-.03.36-.19.23-.16.52-.48.3-.35.69-.93.39-.57.89-1.44.39-.71.73-1.38.34-.67.6-1.22t.42-.9l.16-.35q.17-.45.41-.29.12.07.19.23t.12.32q.1.45.01 1.06-.09.62-.32 1.9l-.17.84q-.08.42-.15.77-.02.17-.05.36.2-.06.43-.35t.46-.64q.23-.35.43-.74.2-.42.36-.7.14-.29.31-.26.17.03.3.32.11.32.1.71 0 .39-.15.68-.33.67-.68 1.28-.35.58-.71 1.03-.34.42-.7.61-.36.16-.71-.03-.23-.19-.33-.64-.09-.45-.06-.96.04-.54.17-1.38-.16.32-.33.61-.16.29-.35.64-1.98 3.5-3.09 3.5z" style="line-height:125%;-inkscape-font-specification:'Redacted Script'"/></g><rect width="101.958" height="101.958" x="14.521" y="15.521" fill="none" stroke="url(#e)" stroke-opacity=".553" stroke-width="1.042" opacity=".5" rx="1.479" ry="1.479"/><rect width="103" height="1" x="14" y="116" fill="#f9c440" rx="0" ry="0"/><rect width="103" height="1" x="14" y="112" fill="#f9c440" rx="0" ry="0"/><rect width="103" height="1" x="14" y="108" fill="#f9c440" rx="0" ry="0"/><rect width="103" height="1" x="14" y="115" fill="#d48e15" rx="0" ry="0" opacity=".75"/><rect width="103" height="1" x="14" y="111" fill="#d48e15" rx="0" ry="0" opacity=".75"/><rect width="103" height="1" x="14" y="107" fill="#d48e15" rx="0" ry="0" opacity=".75"/><rect width="102" height="1" x="15" y="106" fill="#fff" rx="0" ry="0" opacity=".3"/><rect width="102" height="1" x="15" y="110" fill="#fff" rx="0" ry="0" opacity=".3"/><rect width="102" height="1" x="15" y="114" fill="#fff" rx="0" ry="0" opacity=".3"/></svg>