<svg xmlns="http://www.w3.org/2000/svg" width="128" height="128" xmlns:xlink="http://www.w3.org/1999/xlink"><defs><linearGradient id="g"><stop offset="0" stop-color="#333"/><stop offset="1" stop-color="#4d4d4d"/></linearGradient><linearGradient id="d"><stop offset="0" stop-color="#333"/><stop offset="1" stop-color="#4d4d4d"/></linearGradient><linearGradient id="c"><stop offset="0" stop-color="#666"/><stop offset=".3" stop-color="#4d4d4d"/><stop offset=".7" stop-color="#333"/><stop offset="1" stop-color="#333"/></linearGradient><linearGradient id="a"><stop offset="0"/><stop offset="1" stop-opacity=".3"/></linearGradient><radialGradient id="v" cx="64.4" cy="114.8" r="52.5" gradientTransform="matrix(1.3 0 0 .1 -18.9 2.1)" gradientUnits="userSpaceOnUse" xlink:href="#a" fy="114.8" fx="64.4"/><linearGradient id="k"><stop offset="0" stop-color="#272727"/><stop offset="1" stop-color="#454545"/></linearGradient><linearGradient id="u" x1="24" x2="24" y1="5" y2="43" gradientTransform="matrix(2.5 0 0 2.8 5.8 1.3)" gradientUnits="userSpaceOnUse" xlink:href="#b"/><linearGradient id="b"><stop offset="0" stop-color="#fff"/><stop offset="0" stop-color="#fff" stop-opacity=".2"/><stop offset="1" stop-color="#fff" stop-opacity=".2"/><stop offset="1" stop-color="#fff" stop-opacity=".4"/></linearGradient><radialGradient id="s" cx="7.5" cy="8.4" r="20" gradientTransform="matrix(0 6.2 -6.4 0 123.5 -29.7)" gradientUnits="userSpaceOnUse" xlink:href="#c" fy="8.4" fx="7.5"/><linearGradient id="t" x1="24" x2="24" y1="44" y2="3.9" gradientTransform="matrix(2.6 0 0 2.7 6.8 3.5)" gradientUnits="userSpaceOnUse" xlink:href="#d"/><radialGradient id="q" cx="65.3" cy="-45" r="45.7" gradientTransform="matrix(0 2.8 -3.5 0 -90.9 -167.1)" gradientUnits="userSpaceOnUse" xlink:href="#e" fy="-45" fx="65.3"/><linearGradient id="e"><stop offset="0" stop-color="#ff8c82"/><stop offset="1" stop-color="#c6262e"/></linearGradient><linearGradient id="r" x1="31.9" x2="31.9" y1="5.2" y2="60.9" gradientTransform="matrix(1.9 0 0 1.9 8.1 6.3)" gradientUnits="userSpaceOnUse" xlink:href="#f"/><linearGradient id="f"><stop offset="0" stop-color="#ed5353"/><stop offset="1" stop-color="#a10705"/></linearGradient><linearGradient id="p" x1="24" x2="24" y1="44" y2="3.9" gradientTransform="matrix(2.6 0 0 .3 6.8 6.1)" gradientUnits="userSpaceOnUse" xlink:href="#g"/><linearGradient id="o" x1="5.2" x2="54.9" y1=".1" y2=".1" gradientTransform="matrix(1.9 0 0 2 7.8 6)" gradientUnits="userSpaceOnUse" xlink:href="#h"/><linearGradient id="h"><stop offset="0" stop-color="#ed5353"/><stop offset="1" stop-color="#ed5353"/><stop offset="1" stop-color="#cec7b6"/><stop offset="1" stop-color="#cec7b6"/></linearGradient><radialGradient id="l" cx="5" cy="43.5" r="2.5" gradientTransform="matrix(2 0 0 1.4 28 -17.4)" gradientUnits="userSpaceOnUse" xlink:href="#i" fy="43.5" fx="5"/><linearGradient id="i"><stop offset="0" stop-color="#181818"/><stop offset="1" stop-color="#181818" stop-opacity="0"/></linearGradient><radialGradient id="m" cx="5" cy="43.5" r="2.5" gradientTransform="matrix(2 0 0 1.4 -20 -104.4)" gradientUnits="userSpaceOnUse" xlink:href="#i" fy="43.5" fx="5"/><linearGradient id="n" x1="25.1" x2="25.1" y1="47" y2="40" gradientUnits="userSpaceOnUse" xlink:href="#j"/><linearGradient id="j"><stop offset="0" stop-color="#181818" stop-opacity="0"/><stop offset=".5" stop-color="#181818"/><stop offset="1" stop-color="#181818" stop-opacity="0"/></linearGradient><linearGradient id="w" x1="-41" x2="-42" y1="37.6" y2="89.2" xlink:href="#k" gradientUnits="userSpaceOnUse"/></defs><g opacity=".4"><path fill="url(#l)" d="M38 40H43V47H38z" transform="matrix(2.8 0 0 1.8 -1.9 41)"/><path fill="url(#m)" d="M-10 -47H-5V-40H-10z" transform="matrix(-2.8 0 0 -1.8 -1.9 41)"/><path fill="url(#n)" d="M10 40H38V47H10z" transform="matrix(2.8 0 0 1.8 -1.9 41)"/></g><path fill="#f5edd7" stroke="url(#o)" stroke-miterlimit="0" d="m 110.49784,16.493235 c -0.78413,-2.678337 -0.29539,-6.438849 -0.72848,-8.9932344 l -80.269363,0 0.473757,8.1061924" stroke-linecap="round" stroke-linejoin="round"/><path fill="#f5ecd7" stroke="url(#p)" d="m 31.492878,19.499952 -10.394303,0 c -1.483393,0 -2.598576,-0.126997 -2.598576,-0.292678 l 0,-8.88597 c 0,-2.1118382 0.643648,-2.8212528 2.545447,-2.8212528 l 10.447432,0" color="#000" overflow="visible" stroke-linecap="round" stroke-linejoin="round"/><rect width="90" height="104" x="22.5" y="15.5" fill="url(#q)" stroke="url(#r)" stroke-miterlimit="0" ry="1.9" rx="2" stroke-linecap="round" stroke-linejoin="round"/><path fill="url(#s)" stroke="url(#t)" d="m 31.499999,15.5 c 0,0 0,72.315803 0,104 l -10.728851,0 c -1.484205,0 -2.271149,-0.83527 -2.271149,-2.27108 l 0,-101.72892 z" color="#000" overflow="visible" stroke-linecap="round" stroke-linejoin="round"/><rect width="92" height="102" x="19.5" y="16.5" fill="none" stroke="url(#u)" ry="1" rx="1" opacity=".5" stroke-linecap="round" stroke-linejoin="round"/><path fill="none" stroke="url(#v)" d="m 19,9.5 91,0 m -91,2.000001 91,0 M 19,13.5 l 91,0" opacity=".1" stroke-linecap="square"/><path fill="#fff" fill-opacity=".3" d="m -29.45071,78.915253 -3.66211,-10.546875 -15.732422,0 -3.662109,10.546875 -8.642578,0 15.058594,-41.279297 10.195312,0 15,41.279297 -8.554687,0 z m -11.542969,-34.921875 -0.175781,0.644531 q -0.292969,1.054687 -0.703125,2.402344 -0.410157,1.347656 -5.039063,14.824218 l 11.865235,0 -4.072266,-11.865234 -1.259766,-3.984375 -0.615234,-2.021484 z" style="-inkscape-font-specification:'sans-serif Bold'" font-weight="bold" font-size="60" transform="translate(113.8 12.5)" font-family="sans-serif" letter-spacing="0" word-spacing="0"/><path fill="url(#w)" d="m -29.45071,78.915253 -3.66211,-10.546875 -15.732422,0 -3.662109,10.546875 -8.642578,0 15.058594,-41.279297 10.195312,0 15,41.279297 -8.554687,0 z m -11.542969,-34.921875 -0.175781,0.644531 q -0.292969,1.054687 -0.703125,2.402344 -0.410157,1.347656 -5.039063,14.824218 l 11.865235,0 -4.072266,-11.865234 -1.259766,-3.984375 -0.615234,-2.021484 z" style="-inkscape-font-specification:'sans-serif Bold'" font-weight="bold" font-size="60" transform="translate(113.8 11.5)" font-family="sans-serif" letter-spacing="0" word-spacing="0"/></svg>