<svg xmlns="http://www.w3.org/2000/svg" width="128" height="128" xmlns:xlink="http://www.w3.org/1999/xlink"><defs><linearGradient id="c"><stop offset="0" stop-color="#fafafa"/><stop offset="1" stop-color="#d4d4d4"/></linearGradient><linearGradient id="a"><stop offset="0" stop-color="#181818"/><stop offset="1" stop-color="#181818" stop-opacity="0"/></linearGradient><linearGradient id="b"><stop offset="0" stop-color="#181818" stop-opacity="0"/><stop offset=".5" stop-color="#181818"/><stop offset="1" stop-color="#181818" stop-opacity="0"/></linearGradient><linearGradient id="d"><stop offset="0" stop-color="#fff"/><stop offset=".5" stop-color="#fff" stop-opacity=".2"/><stop offset=".8" stop-color="#fff" stop-opacity=".2"/><stop offset="1" stop-color="#fff" stop-opacity=".4"/></linearGradient><radialGradient id="f" cx="5" cy="43.5" r="2.5" fx="5" fy="43.5" xlink:href="#a" gradientUnits="userSpaceOnUse" gradientTransform="matrix(2.4 0 0 1.7 -33 -192.9)"/><radialGradient id="e" cx="5" cy="43.5" r="2.5" fx="5" fy="43.5" xlink:href="#a" gradientUnits="userSpaceOnUse" gradientTransform="matrix(2.4 0 0 1.7 97 46.6)"/><linearGradient id="g" x1="25.1" x2="25.1" y1="47" y2="40" xlink:href="#b" gradientUnits="userSpaceOnUse" gradientTransform="matrix(3.1 0 0 1.2 -10.4 67.5)"/><linearGradient id="h" x1="60" x2="60" y1="8" y2="128" xlink:href="#c" gradientUnits="userSpaceOnUse" gradientTransform="translate(-.2 2)"/><linearGradient id="i" x1="65" x2="65" y1="13" y2="121.1" xlink:href="#d" gradientUnits="userSpaceOnUse"/></defs><path fill="url(#e)" d="M109 115.6h6v8.4h-6z" opacity=".4"/><path fill="url(#f)" d="M-21-124h6v8.4h-6z" transform="scale(-1)" opacity=".4"/><path fill="url(#g)" d="M21 115.6h88v8.4H21z" opacity=".4"/><path fill="url(#h)" stroke="#000" stroke-opacity=".3" d="M18.5 12.5h94v109h-94v-109z" stroke-linecap="round" stroke-linejoin="round"/><path fill="#3689e6" d="M86 30h2v10h-2z"/><rect width="55" height="2" x="30.2" y="46" fill="#7e8087" ry="0"/><rect width="49.9" height="2" x="29.9" y="54" fill="#7e8087" ry="0"/><rect width="44.9" height="2" x="30.2" y="62" fill="#7e8087" ry="0"/><rect width="40" height="2" x="30.2" y="70" fill="#7e8087" ry="0"/><rect width="44.9" height="2" x="29.9" y="78" fill="#7e8087" ry="0"/><rect width="58" height="2" x="30.4" y="86" fill="#7e8087" ry="0"/><rect width="55" height="2" x="30.2" y="-104" fill="#7e8087" ry="0"/><rect width="44.9" height="2" x="30.2" y="-96" fill="#7e8087" ry="0"/><rect width="49.9" height="2" x="30.2" y="-112" fill="#7e8087" ry="0"/><rect width="50" height="2" x="29.9" y="30" fill="#273445" ry="0"/><rect width="45" height="2" x="30.2" y="38" fill="#273445" ry="0"/><path fill="none" stroke="url(#i)" d="M19.5 13.5h92v107h-92z" opacity=".3" stroke-linecap="round" stroke-linejoin="round"/><rect width="49.9" height="2" x="30" y="22" fill="#7e8087" ry="0"/></svg>