<?xml version="1.0" encoding="UTF-8" standalone="no"?>
<svg
   xmlns:osb="http://www.openswatchbook.org/uri/2009/osb"
   xmlns:dc="http://purl.org/dc/elements/1.1/"
   xmlns:cc="http://creativecommons.org/ns#"
   xmlns:rdf="http://www.w3.org/1999/02/22-rdf-syntax-ns#"
   xmlns:svg="http://www.w3.org/2000/svg"
   xmlns="http://www.w3.org/2000/svg"
   xmlns:sodipodi="http://sodipodi.sourceforge.net/DTD/sodipodi-0.dtd"
   xmlns:inkscape="http://www.inkscape.org/namespaces/inkscape"
   width="128"
   height="128"
   viewBox="0 0 33.866666 33.866668"
   version="1.1"
   id="svg8"
   sodipodi:docname="design.svg"
   inkscape:version="1.0.2 (e86c870879, 2021-01-15)">
  <defs
     id="defs2">
    <linearGradient
       id="linearGradient7212"
       osb:paint="solid">
      <stop
         id="stop7214"
         offset="0"
         style="stop-color:#000000;stop-opacity:1;" />
    </linearGradient>
  </defs>
  <sodipodi:namedview
     id="base"
     pagecolor="#ffffff"
     bordercolor="#666666"
     borderopacity="1.0"
     inkscape:pageopacity="0.0"
     inkscape:pageshadow="2"
     inkscape:zoom="4.1585026"
     inkscape:cx="211.16577"
     inkscape:cy="78.423428"
     inkscape:document-units="px"
     inkscape:current-layer="layer1"
     inkscape:document-rotation="0"
     showgrid="true"
     units="px"
     inkscape:window-width="2560"
     inkscape:window-height="1011"
     inkscape:window-x="0"
     inkscape:window-y="0"
     inkscape:window-maximized="1">
    <inkscape:grid
       type="xygrid"
       id="grid833" />
  </sodipodi:namedview>
  <metadata
     id="metadata5">
    <rdf:RDF>
      <cc:Work
         rdf:about="">
        <dc:format>image/svg+xml</dc:format>
        <dc:type
           rdf:resource="http://purl.org/dc/dcmitype/StillImage" />
        <dc:title />
      </cc:Work>
    </rdf:RDF>
  </metadata>
  <g
     inkscape:label="Layer 1"
     inkscape:groupmode="layer"
     id="layer1">
    <path
       id="path1901"
       style="fill:none;stroke:#241f31;stroke-width:0.52916667;stroke-miterlimit:4;stroke-dasharray:none;stroke-opacity:1"
       d="m 14.828546,6.3466684 v 0.00103 c -2.791348,0.04232 -6.5416574,1.1314274 -6.4781574,4.6271076 0.06615,3.649446 3.8589484,2.344847 4.1671874,3.835942 -0.466084,2.615913 -0.441712,2.645592 -1.361157,7.977291 0.08334,2.072298 1.071756,3.873415 4.291728,4.539257 5.156719,1.066482 10.106877,-2.198313 10.068636,-9.96063 0.03824,-6.2606 -4.148892,-10.585505 -10.109977,-11.0199995 -0.177271,-0.00564 -0.391729,-0.0014 -0.57826,0 z m -2.517159,2.1595581 c 1.09405,0 1.980241,0.9481021 1.980241,2.1161505 -0.0012,1.884394 -2.138197,2.825539 -3.386357,1.491899 C 9.6571114,10.780637 10.54424,8.5037124 12.311387,8.5062265 Z m 10.068637,6.3045255 c 1.76322,7.14e-4 1.76322,2.821724 0,2.821016 -1.763221,-7.14e-4 -1.763221,-2.821724 0,-2.821016 z m -0.82579,4.230233 v 0.0016 c 1.708122,0.05761 1.708122,2.762372 0,2.819983 -1.76322,-7.15e-4 -1.76322,-2.822242 0,-2.821534 z m -6.601147,2.819983 c 1.76322,7.14e-4 1.76322,2.822241 0,2.821533 -1.76322,-7.14e-4 -1.76322,-2.822241 0,-2.821533 z m 3.960998,0 c 1.76322,7.14e-4 1.76322,2.822241 0,2.821533 -1.76322,-7.14e-4 -1.76322,-2.822241 0,-2.821533 z"
       sodipodi:nodetypes="cccccccccccscsssccccssssss" />
  </g>
</svg>
