<?xml version="1.0" encoding="UTF-8" standalone="no"?>
<svg
   xmlns:dc="http://purl.org/dc/elements/1.1/"
   xmlns:cc="http://creativecommons.org/ns#"
   xmlns:rdf="http://www.w3.org/1999/02/22-rdf-syntax-ns#"
   xmlns:svg="http://www.w3.org/2000/svg"
   xmlns="http://www.w3.org/2000/svg"
   xmlns:sodipodi="http://sodipodi.sourceforge.net/DTD/sodipodi-0.dtd"
   xmlns:inkscape="http://www.inkscape.org/namespaces/inkscape"
   version="1.1"
   id="svg2"
   width="128"
   height="128"
   viewBox="0 0 128 128"
   sodipodi:docname="fedora.svg"
   inkscape:version="1.0.2 (e86c870879, 2021-01-15)">
  <metadata
     id="metadata8">
    <rdf:RDF>
      <cc:Work
         rdf:about="">
        <dc:format>image/svg+xml</dc:format>
        <dc:type
           rdf:resource="http://purl.org/dc/dcmitype/StillImage" />
        <dc:title></dc:title>
      </cc:Work>
    </rdf:RDF>
  </metadata>
  <defs
     id="defs6" />
  <sodipodi:namedview
     pagecolor="#ffffff"
     bordercolor="#666666"
     borderopacity="1"
     objecttolerance="10"
     gridtolerance="10"
     guidetolerance="10"
     inkscape:pageopacity="0"
     inkscape:pageshadow="2"
     inkscape:window-width="2560"
     inkscape:window-height="1011"
     id="namedview4"
     showgrid="false"
     inkscape:zoom="5.7421875"
     inkscape:cx="64"
     inkscape:cy="64"
     inkscape:window-x="0"
     inkscape:window-y="0"
     inkscape:window-maximized="1"
     inkscape:current-layer="g10" />
  <g
     inkscape:groupmode="layer"
     inkscape:label="Image"
     id="g10">
    <path
       style="fill:#000000;stroke-width:0.999995"
       d="M 8.7473464,125.17171 C 6.8579841,124.16615 4.3031619,121.61467 3.0699626,119.50176 0.84444441,115.68865 0.83015899,115.42561 1.1475634,84.105607 1.4484839,54.4125 1.5999646,52.143932 3.715419,45.648565 13.815347,14.637393 44.819612,-4.0397268 75.845952,2.1967803 96.191995,6.2864758 112.76972,19.385278 121.38238,38.177162 137.5864,73.532562 117.2805,115.30017 79.145292,125.05545 72.406193,126.77938 68.176142,127 41.863132,127 14.853499,127 11.873417,126.83547 8.7473464,125.17171 Z m 42.2808226,-8.55132 c 11.44606,-6.23097 15.901543,-15.07542 15.901543,-31.565696 V 74.737866 h 7.815494 c 7.321449,0 7.948183,-0.16872 9.914543,-2.669036 1.466893,-1.865227 1.914266,-3.424308 1.485496,-5.17691 -1.058323,-4.325957 -2.944304,-5.332942 -11.067235,-5.909147 l -7.655357,-0.543038 -0.290155,-8.371507 c -0.372831,-10.756591 1.418604,-15.861029 6.821627,-19.437296 3.237565,-2.142947 4.90957,-2.53897 10.329491,-2.446594 5.607376,0.09557 6.783582,-0.206763 8.851655,-2.275256 2.912677,-2.913255 2.982251,-4.40795 0.360379,-7.741793 C 89.215082,14.724343 79.84508,14.511612 69.203539,19.615776 57.740827,25.113808 53.127376,34.002482 53.127376,50.589533 V 60.932774 H 45.68846 c -6.583606,0 -7.717153,0.278291 -9.858812,2.420373 -2.946976,2.947566 -3.060352,5.373993 -0.408638,8.745775 1.808481,2.299568 2.777612,2.586373 9.612341,2.844696 l 7.601085,0.287287 v 10.431759 c 0,9.976791 -0.123906,10.594198 -2.841132,14.156244 -3.578887,4.691602 -7.808445,6.473452 -15.366003,6.473452 -8.240053,0 -11.760684,3.53698 -8.879801,8.92103 3.074007,5.74498 16.182331,6.4688 25.480669,1.407 z"
       id="path14" />
  </g>
</svg>
