<?xml version="1.0" encoding="UTF-8" standalone="no"?>
<!-- Created with Inkscape (http://www.inkscape.org/) -->

<svg
   version="1.1"
   id="svg2"
   width="64"
   height="64"
   viewBox="0 0 63.999999 63.999998"
   sodipodi:docname="gh.svg"
   inkscape:version="1.1 (c4e8f9ed74, 2021-05-24)"
   xmlns:inkscape="http://www.inkscape.org/namespaces/inkscape"
   xmlns:sodipodi="http://sodipodi.sourceforge.net/DTD/sodipodi-0.dtd"
   xmlns="http://www.w3.org/2000/svg"
   xmlns:svg="http://www.w3.org/2000/svg">
  <defs
     id="defs6" />
  <sodipodi:namedview
     id="namedview4"
     pagecolor="#ffffff"
     bordercolor="#666666"
     borderopacity="1.0"
     inkscape:pageshadow="2"
     inkscape:pageopacity="0.0"
     inkscape:pagecheckerboard="0"
     showgrid="false"
     inkscape:zoom="5.5961536"
     inkscape:cx="39.938146"
     inkscape:cy="69.333336"
     inkscape:window-width="2560"
     inkscape:window-height="1011"
     inkscape:window-x="0"
     inkscape:window-y="0"
     inkscape:window-maximized="1"
     inkscape:current-layer="g8" />
  <g
     inkscape:groupmode="layer"
     inkscape:label="Image"
     id="g8">
    <path
       id="path66"
       style="fill:#000000;stroke-width:1.33333"
       d="M -34.878906 89.685547 L -36.943359 91.75 L -39.007812 93.8125 L -39.007812 96.384766 L -39.007812 98.955078 L -40.253906 98.955078 L -41.5 98.955078 L -45.253906 97.533203 L -49.007812 96.111328 L -52.007812 93.300781 L -55.007812 90.490234 L -55.007812 94.65625 L -55.007812 98.822266 L -52.673828 100.18164 L -50.339844 101.54102 L -52.673828 101.58203 L -55.007812 101.62305 L -55.007812 102.79297 L -55.007812 103.96289 L -53.064453 105.57422 L -51.123047 107.18555 L -49.525391 106.19727 L -47.927734 105.21094 L -48.878906 106.75 L -49.830078 108.28906 L -51.916016 108.28906 L -54 108.28906 L -52.339844 110.28906 L -50.679688 112.28906 L -47.84375 112.39844 L -45.007812 112.50586 L -49.238281 114.35938 L -53.46875 116.21289 L -54.316406 117.58398 L -55.164062 118.95508 L -47.685547 118.95508 L -40.207031 118.95508 L -36.433594 117.00391 L -32.658203 115.05078 L -29.279297 111.03516 L -25.900391 107.01953 L -24.966797 102.6543 L -24.033203 98.289062 L -22.519531 96.40625 L -21.007812 94.521484 L -22.599609 93.986328 L -24.191406 93.449219 L -23.568359 91.828125 L -22.945312 90.205078 L -28.912109 89.945312 L -34.878906 89.685547 z " />
    <g
       id="g398">
      <path
         id="path286"
         style="fill:#000000;stroke-width:1.33333"
         d="M -123.00781 86.955078 L -123.00781 103.62305 L -123.00781 120.28906 L -120.33984 120.28906 L -117.67383 120.28906 L -117.67383 103.62305 L -117.67383 86.955078 L -120.33984 86.955078 L -123.00781 86.955078 z " />
      <path
         id="path393"
         style="fill:#000000;stroke-width:1.33333"
         d="M -107.50195 88.289062 L -110.58789 91.1875 L -113.67383 94.087891 L -113.67383 100.10156 L -113.67383 106.11719 L -110.77539 109.20312 L -107.875 112.28906 L -103.19336 112.28906 L -98.511719 112.28906 L -95.425781 109.39062 L -92.339844 106.49023 L -92.339844 100.47656 L -92.339844 94.460938 L -95.240234 91.375 L -98.138672 88.289062 L -102.82031 88.289062 L -107.50195 88.289062 z " />
    </g>
    <g
       id="g745"
       transform="translate(140.33986,-3.62207)">
      <path
         id="path272"
         style="fill:#000000;stroke-width:1.33333"
         d="m -124.33984,16.289062 v 5.078126 5.078124 l -1.95899,2.587891 -1.95703,2.589844 -0.043,6.091797 -0.041,6.09375 4.76953,5.574218 4.77148,5.572266 h 10.45899 10.458981 l 4.769531,-5.572266 4.771484,-5.574218 -0.04297,-6.09375 -0.04297,-6.091797 -1.957031,-2.589844 -1.957032,-2.587891 v -5.078124 -5.078126 h -1.738281 -1.738281 l -4.523431,4.666016 -4.52344,4.667969 h -3.47656 -3.47657 l -4.52343,-4.667969 -4.52344,-4.666016 h -1.73828 z m 7.33203,13.705079 9.52734,0.201171 9.525392,0.199219 2.140625,1.777344 2.140625,1.777344 v 4.605469 4.605468 l -3.896484,3.898438 -3.898438,3.896484 h -6.87109 -6.87305 l -3.89649,-3.896484 -3.89843,-3.898438 v -4.738281 -4.738281 l 3,-1.84375 z" />
      <rect
         style="fill:#000000;fill-rule:evenodd"
         id="rect615"
         width="4.3130908"
         height="9.4833555"
         x="-115.75194"
         y="35.184601" />
      <rect
         style="fill:#000000;fill-rule:evenodd"
         id="rect615-3"
         width="4.3130908"
         height="9.4833555"
         x="-105.56043"
         y="35.035225" />
    </g>
  </g>
</svg>
