<?xml version="1.0" encoding="UTF-8" standalone="no"?>
<!-- Created with Inkscape (http://www.inkscape.org/) -->

<svg
   version="1.1"
   id="svg2"
   width="64"
   height="64"
   viewBox="0 0 63.999999 63.999998"
   sodipodi:docname="merv.svg"
   inkscape:version="1.1 (c4e8f9ed74, 2021-05-24)"
   xmlns:inkscape="http://www.inkscape.org/namespaces/inkscape"
   xmlns:sodipodi="http://sodipodi.sourceforge.net/DTD/sodipodi-0.dtd"
   xmlns="http://www.w3.org/2000/svg"
   xmlns:svg="http://www.w3.org/2000/svg">
  <defs
     id="defs6" />
  <sodipodi:namedview
     id="namedview4"
     pagecolor="#ffffff"
     bordercolor="#666666"
     borderopacity="1.0"
     inkscape:pageshadow="2"
     inkscape:pageopacity="0.0"
     inkscape:pagecheckerboard="0"
     showgrid="false"
     inkscape:zoom="5.5961536"
     inkscape:cx="39.938146"
     inkscape:cy="69.333336"
     inkscape:window-width="2560"
     inkscape:window-height="1011"
     inkscape:window-x="0"
     inkscape:window-y="0"
     inkscape:window-maximized="1"
     inkscape:current-layer="g8" />
  <g
     inkscape:groupmode="layer"
     inkscape:label="Image"
     id="g8">
    <path
       id="path66"
       style="fill:#000000;stroke-width:1.33333"
       d="M -34.878906 89.685547 L -36.943359 91.75 L -39.007812 93.8125 L -39.007812 96.384766 L -39.007812 98.955078 L -40.253906 98.955078 L -41.5 98.955078 L -45.253906 97.533203 L -49.007812 96.111328 L -52.007812 93.300781 L -55.007812 90.490234 L -55.007812 94.65625 L -55.007812 98.822266 L -52.673828 100.18164 L -50.339844 101.54102 L -52.673828 101.58203 L -55.007812 101.62305 L -55.007812 102.79297 L -55.007812 103.96289 L -53.064453 105.57422 L -51.123047 107.18555 L -49.525391 106.19727 L -47.927734 105.21094 L -48.878906 106.75 L -49.830078 108.28906 L -51.916016 108.28906 L -54 108.28906 L -52.339844 110.28906 L -50.679688 112.28906 L -47.84375 112.39844 L -45.007812 112.50586 L -49.238281 114.35938 L -53.46875 116.21289 L -54.316406 117.58398 L -55.164062 118.95508 L -47.685547 118.95508 L -40.207031 118.95508 L -36.433594 117.00391 L -32.658203 115.05078 L -29.279297 111.03516 L -25.900391 107.01953 L -24.966797 102.6543 L -24.033203 98.289062 L -22.519531 96.40625 L -21.007812 94.521484 L -22.599609 93.986328 L -24.191406 93.449219 L -23.568359 91.828125 L -22.945312 90.205078 L -28.912109 89.945312 L -34.878906 89.685547 z " />
    <g
       id="g398">
      <path
         id="path286"
         style="fill:#000000;stroke-width:1.33333"
         d="M -123.00781 86.955078 L -123.00781 103.62305 L -123.00781 120.28906 L -120.33984 120.28906 L -117.67383 120.28906 L -117.67383 103.62305 L -117.67383 86.955078 L -120.33984 86.955078 L -123.00781 86.955078 z " />
      <path
         id="path393"
         style="fill:#000000;stroke-width:1.33333"
         d="M -107.50195 88.289062 L -110.58789 91.1875 L -113.67383 94.087891 L -113.67383 100.10156 L -113.67383 106.11719 L -110.77539 109.20312 L -107.875 112.28906 L -103.19336 112.28906 L -98.511719 112.28906 L -95.425781 109.39062 L -92.339844 106.49023 L -92.339844 100.47656 L -92.339844 94.460938 L -95.240234 91.375 L -98.138672 88.289062 L -102.82031 88.289062 L -107.50195 88.289062 z " />
    </g>
    <g
       id="g406"
       transform="translate(71.006836,-2.9560545)">
      <path
         id="path284"
         style="fill:#000000;stroke-width:1.33333"
         d="m -31.007812,42.955078 v 2.087891 2.08789 l 1.367187,2.554688 1.367187,2.552734 3.632813,1.972657 3.632813,1.970703 1.667968,0.05469 1.666016,0.05273 v -6.666015 -6.667969 h -6.666016 z" />
      <path
         id="path282"
         style="fill:#000000;stroke-width:1.33333"
         d="m -45.673828,42.955078 v 6.667969 6.666015 h 1.734375 1.732422 l 1.599609,-1.599609 1.59961,-1.599609 1.601562,1.599609 1.599609,1.599609 h 1.732422 1.734375 v -6.666015 -6.667969 h -6.667968 z" />
      <path
         id="path280"
         style="fill:#000000;stroke-width:1.33333"
         d="m -60.339844,42.955078 v 6.667969 6.666015 h 1.398438 1.40039 l 3.894532,-2.013671 3.894531,-2.013672 1.373047,-2.566407 1.371094,-2.564453 v -2.08789 -2.087891 h -6.666016 z" />
      <path
         id="path276"
         style="fill:#000000;stroke-width:1.33333"
         d="m -27.806641,28.289062 -1.599609,1.59961 -1.601562,1.599609 v 3.466797 3.466797 l 1.601562,1.599609 1.599609,1.601563 h 2.628907 2.626953 l 2.439453,-2.207031 2.4375,-2.207032 V 35.1875 33.166016 l -2.207031,-2.439454 -2.207032,-2.4375 h -2.859375 z" />
      <path
         id="path274"
         style="fill:#000000;stroke-width:1.33333"
         d="m -55.462891,28.289062 -2.439453,2.207032 -2.4375,2.207031 v 2.021484 2.021485 l 2.207032,2.4375 2.205078,2.439453 h 2.861328 2.859375 l 1.599609,-1.601563 1.59961,-1.599609 v -3.466797 -3.466797 l -1.59961,-1.599609 -1.599609,-1.59961 h -2.628907 z m 12.988282,0 -1.59961,1.59961 -1.599609,1.599609 v 3.466797 3.466797 l 1.599609,1.599609 1.59961,1.601563 h 3.466797 3.466796 l 1.601563,-1.601563 1.599609,-1.599609 v -3.466797 -3.466797 l -1.599609,-1.599609 -1.601563,-1.59961 h -3.466796 z" />
      <path
         id="path270"
         style="fill:#000000;stroke-width:1.33333"
         d="m -60.339844,13.623047 v 6.666015 6.666016 h 6.666016 6.666016 v -2.08789 -2.085938 l -1.371094,-2.566406 -1.373047,-2.564453 -3.894531,-2.013672 -3.894532,-2.013672 h -1.40039 z m 14.666016,0 v 6.666015 6.666016 h 6.666016 6.667968 v -6.666016 -6.666015 h -1.734375 -1.732422 l -1.599609,1.599609 -1.601562,1.59961 -1.59961,-1.59961 -1.599609,-1.599609 h -1.732422 z m 25.201172,0 -3.894532,2.013672 -3.894531,2.013672 -1.373047,2.564453 -1.373046,2.566406 v 2.085938 2.08789 h 6.667968 6.666016 v -6.666016 -6.666015 h -1.398438 z" />
    </g>
    <g
       id="g745">
      <path
         id="path272"
         style="fill:#000000;stroke-width:1.33333"
         d="M -124.33984 16.289062 L -124.33984 21.367188 L -124.33984 26.445312 L -126.29883 29.033203 L -128.25586 31.623047 L -128.29883 37.714844 L -128.33984 43.808594 L -123.57031 49.382812 L -118.79883 54.955078 L -108.33984 54.955078 L -97.880859 54.955078 L -93.111328 49.382812 L -88.339844 43.808594 L -88.382812 37.714844 L -88.425781 31.623047 L -90.382812 29.033203 L -92.339844 26.445312 L -92.339844 21.367188 L -92.339844 16.289062 L -94.078125 16.289062 L -95.816406 16.289062 L -100.33984 20.955078 L -104.86328 25.623047 L -108.33984 25.623047 L -111.81641 25.623047 L -116.33984 20.955078 L -120.86328 16.289062 L -122.60156 16.289062 L -124.33984 16.289062 z M -117.00781 29.994141 L -107.48047 30.195312 L -97.955078 30.394531 L -95.814453 32.171875 L -93.673828 33.949219 L -93.673828 38.554688 L -93.673828 43.160156 L -97.570312 47.058594 L -101.46875 50.955078 L -108.33984 50.955078 L -115.21289 50.955078 L -119.10938 47.058594 L -123.00781 43.160156 L -123.00781 38.421875 L -123.00781 33.683594 L -120.00781 31.839844 L -117.00781 29.994141 z " />
      <rect
         style="fill:#000000;fill-rule:evenodd"
         id="rect615"
         width="4.3130908"
         height="9.4833555"
         x="-115.75194"
         y="35.184601" />
      <rect
         style="fill:#000000;fill-rule:evenodd"
         id="rect615-3"
         width="4.3130908"
         height="9.4833555"
         x="-105.56043"
         y="35.035225" />
    </g>
  </g>
</svg>
