<?xml version="1.0" encoding="UTF-8" standalone="no"?>
<!-- Created with Inkscape (http://www.inkscape.org/) -->

<svg
   version="1.1"
   id="svg2"
   width="20.48"
   height="20.48"
   viewBox="0 0 20.48 20.48"
   sodipodi:docname="pc.svg"
   inkscape:version="1.1 (c4e8f9ed74, 2021-05-24)"
   xmlns:inkscape="http://www.inkscape.org/namespaces/inkscape"
   xmlns:sodipodi="http://sodipodi.sourceforge.net/DTD/sodipodi-0.dtd"
   xmlns="http://www.w3.org/2000/svg"
   xmlns:svg="http://www.w3.org/2000/svg">
  <defs
     id="defs6" />
  <sodipodi:namedview
     id="namedview4"
     pagecolor="#ffffff"
     bordercolor="#666666"
     borderopacity="1.0"
     inkscape:pageshadow="2"
     inkscape:pageopacity="0.0"
     inkscape:pagecheckerboard="0"
     showgrid="false"
     inkscape:zoom="37.890626"
     inkscape:cx="3.1670102"
     inkscape:cy="10.24"
     inkscape:window-width="2560"
     inkscape:window-height="1011"
     inkscape:window-x="0"
     inkscape:window-y="0"
     inkscape:window-maximized="1"
     inkscape:current-layer="g8" />
  <g
     inkscape:groupmode="layer"
     inkscape:label="Image"
     id="g8">
    <path
       style="fill:#000000;stroke-width:0.32"
       d="M 8.1104038,18.24 H 2.24 V 17.49578 16.751561 L 3.04,16 3.84,15.248439 V 13.883105 12.517771 L 4.16,12.32 4.48,12.122229 V 8.2009837 4.2797382 L 5.3862762,3.4114707 6.2925523,2.5432029 11.386276,2.6316015 16.48,2.72 16.56929,6.96 16.65858,11.2 H 17.129288 17.6 v 1.98249 1.98249 L 16.740131,16.06249 15.880262,16.96 H 15.509727 15.139192 L 14.56,17.6 13.980808,18.24 Z M 7.9990224,17.28 H 13.229606 L 13.814803,16.750404 14.4,16.220808 V 15.950404 15.68 H 9.3357805 4.271561 L 3.52,16.48 2.768439,17.28 Z M 9.92,15.04 h 5.44 V 14.08 13.12 H 9.92 4.48 v 0.96 0.96 z M 5.5733334,14.054737 4.96,14.029474 5.38,13.861404 5.8,13.693333 5.9933334,13.886667 6.1866666,14.08 Z M 12.96,13.988476 l -1.6,-0.0044 0.8844,-0.133734 0.8844,-0.133733 0.7156,0.138101 0.7156,0.138102 z M 10.153254,12.408593 14.88,12.32 v -4 -4 h -4.8 -4.8 L 5.188955,7.9804342 5.097909,11.640868 5.2622088,12.069028 5.426509,12.497187 Z M 10.08,11.84 H 5.76 V 8.32 4.8 h 4.32 4.32 v 3.52 3.52 z m 0,-0.64 h 3.68 V 8.32 5.44 H 10.08 6.4 V 8.32 11.2 Z M 9.5232915,10.56 H 7.7866666 L 7.5733334,10.346667 7.36,10.133333 V 8.8966237 7.6599136 L 7.8084666,7.4878208 8.2569331,7.315728 8.4226765,6.6819251 8.5884198,6.0481219 10.61421,6.1440611 12.64,6.24 12.739612,7.6248294 12.839225,9.0096589 12.209198,9.1744147 11.579171,9.3391706 11.419544,9.9495853 11.259916,10.56 Z M 9.44,9.92 h 1.44 V 8.96 8 H 9.44 8 V 8.96 9.92 Z M 11.877322,8.64 H 12.16 V 7.68 6.72 h -1.6 -1.6 v 0.32 0.32 h 1.149958 1.149958 L 11.42728,8 11.594644,8.64 Z"
       id="path66" />
  </g>
</svg>
