<?xml version="1.0" encoding="UTF-8" standalone="no"?>
<!-- Created with Inkscape (http://www.inkscape.org/) -->

<svg
   version="1.1"
   id="svg2"
   width="64"
   height="64"
   viewBox="0 0 63.999999 63.999998"
   sodipodi:docname="twi.svg"
   inkscape:version="1.1 (c4e8f9ed74, 2021-05-24)"
   xmlns:inkscape="http://www.inkscape.org/namespaces/inkscape"
   xmlns:sodipodi="http://sodipodi.sourceforge.net/DTD/sodipodi-0.dtd"
   xmlns="http://www.w3.org/2000/svg"
   xmlns:svg="http://www.w3.org/2000/svg">
  <defs
     id="defs6" />
  <sodipodi:namedview
     id="namedview4"
     pagecolor="#ffffff"
     bordercolor="#666666"
     borderopacity="1.0"
     inkscape:pageshadow="2"
     inkscape:pageopacity="0.0"
     inkscape:pagecheckerboard="0"
     showgrid="false"
     inkscape:zoom="5.5961536"
     inkscape:cx="39.938146"
     inkscape:cy="69.333336"
     inkscape:window-width="2560"
     inkscape:window-height="1011"
     inkscape:window-x="0"
     inkscape:window-y="0"
     inkscape:window-maximized="1"
     inkscape:current-layer="g8" />
  <g
     inkscape:groupmode="layer"
     inkscape:label="Image"
     id="g8">
    <path
       id="path66"
       style="fill:#000000;stroke-width:1.33333"
       d="m 35.207031,17.365233 c -1.375791,1.376162 -2.752093,2.751813 -4.128906,4.126953 0,1.714193 0,3.428385 0,5.142578 -0.910197,-0.05734 -1.863083,0.11854 -2.74458,-0.0956 -2.43412,-0.946559 -4.917725,-1.813736 -7.321073,-2.809658 -1.978116,-1.853196 -3.956231,-3.706391 -5.934347,-5.559587 0,2.777344 0,5.554688 0,8.332032 1.555991,0.906249 3.11198,1.8125 4.667968,2.718754 -1.555989,0.02734 -3.111979,0.05468 -4.667968,0.08203 0,0.779947 0,1.559893 0,2.33984 1.29534,1.073716 2.590262,2.147936 3.884765,3.222661 1.064649,-0.65894 2.129753,-1.317144 3.195313,-1.974611 -0.634115,1.02604 -1.268229,2.05208 -1.902344,3.07812 -1.389974,0 -2.779948,0 -4.169922,0 1.106771,1.333333 2.213541,2.666667 3.320312,4 1.890586,0.07329 3.781212,0.145556 5.671876,0.2168 -2.820311,1.235681 -5.640623,2.471358 -8.460938,3.70703 -0.565106,0.914062 -1.13021,1.828125 -1.695312,2.74219 4.985677,0 9.971354,0 14.957031,0 2.528311,-1.333334 5.115412,-2.59327 7.60675,-3.973137 2.233299,-2.654135 4.466596,-5.308273 6.69989,-7.962413 0.622397,-2.910156 1.244793,-5.820312 1.867188,-8.730468 1.009581,-1.254962 2.018044,-2.510822 3.025391,-3.767578 -1.061507,-0.356503 -2.122705,-0.713926 -3.183594,-1.072265 0.415709,-1.081248 0.831072,-2.162629 1.246094,-3.244141 -3.977865,-0.173178 -7.955729,-0.346355 -11.933594,-0.519531 z" />
    <g
       id="g398">
      <path
         id="path286"
         style="fill:#000000;stroke-width:1.33333"
         d="M -123.00781 86.955078 L -123.00781 103.62305 L -123.00781 120.28906 L -120.33984 120.28906 L -117.67383 120.28906 L -117.67383 103.62305 L -117.67383 86.955078 L -120.33984 86.955078 L -123.00781 86.955078 z " />
      <path
         id="path393"
         style="fill:#000000;stroke-width:1.33333"
         d="M -107.50195 88.289062 L -110.58789 91.1875 L -113.67383 94.087891 L -113.67383 100.10156 L -113.67383 106.11719 L -110.77539 109.20312 L -107.875 112.28906 L -103.19336 112.28906 L -98.511719 112.28906 L -95.425781 109.39062 L -92.339844 106.49023 L -92.339844 100.47656 L -92.339844 94.460938 L -95.240234 91.375 L -98.138672 88.289062 L -102.82031 88.289062 L -107.50195 88.289062 z " />
    </g>
  </g>
</svg>
